<?xml version="1.0" encoding="utf-8"?>
<!-- Generator: Adobe Illustrator 19.0.0, SVG Export Plug-In . SVG Version: 6.00 Build 0)  -->
<svg version="1.1" id="图层_1" xmlns="http://www.w3.org/2000/svg" xmlns:xlink="http://www.w3.org/1999/xlink" x="0px" y="0px"
	 viewBox="-90 143 217.5 115" style="enable-background:new -90 143 217.5 115;" xml:space="preserve">
<style type="text/css">
	.st0{fill:#fff;stroke:#fff;stroke-width:2.0237;stroke-miterlimit:10;}
	.st1{fill:none;stroke:#fff;stroke-width:5;stroke-linecap:round;stroke-linejoin:round;stroke-miterlimit:10;}
	.st2{fill:#fff;}
</style>
<path class="st0" d="M3.5,154.1c0.8,0,1.5,0.7,1.5,1.5v0.1c0,0.8-0.7,1.5-1.5,1.5h-8.9v8.3c0,0.8-0.7,1.5-1.5,1.5H-7
	c-0.8,0-1.5-0.7-1.5-1.5v-8.3h-8.8c-0.8,0-1.5-0.7-1.5-1.5v-0.1c0-0.8,0.7-1.5,1.5-1.5h8.8v-7.3c0-0.8,0.7-1.5,1.5-1.5h0.1
	c0.8,0,1.5,0.7,1.5,1.5v7.3H3.5z M4.6,170.1c0.8,0,1.5,0.7,1.5,1.5v0.1c0,0.8-0.7,1.5-1.5,1.5H3c0,0.1,0,0.2,0,0.3
	c-0.4,1.5-0.9,2.9-1.7,4.2c-0.9,1.5-2.7,2.8-4.1,3.9l5.8,2.1c0.7,0.3,1.1,1.2,0.8,2c-0.1,0.4-0.4,0.7-0.8,0.8
	c-0.4,0.2-0.8,0.2-1.2,0l-7.7-2.9c-1,0.6-2.1,1.1-3.3,1.5c-1.8,0.6-4.3,1.2-6.3,1.6c-0.8,0.2-1.7-0.4-1.8-1.2
	c-0.1-0.8,0.4-1.6,1.2-1.8c1.9-0.5,4.5-1,6.3-1.7l-0.7-0.3c-1.1-0.4-1.9-1.1-2.4-1.9c-0.5-0.9-0.7-1.8-0.7-2.9c0-0.5,0-0.9,0.1-1.3
	c0-0.4,0.2-0.8,0.3-1.3l0.4-1.1H-16c-0.8,0-1.5-0.7-1.5-1.5v-0.1c0-0.8,0.7-1.5,1.5-1.5h4.3l0.7-1.8c0.3-0.8,1.1-1.2,1.9-0.9l0,0
	c0.8,0.3,1.2,1.2,1,2l-0.3,0.8L4.6,170.1L4.6,170.1z M-14.7,158.9c0.3-0.8,1.1-1.2,1.9-1h0.1c0.8,0.3,1.2,1.2,1,1.9l-1.8,5.3
	c-0.3,0.8-1.2,1.2-1.9,1h-0.1c-0.8-0.3-1.2-1.2-1-1.9L-14.7,158.9z M-11.9,150.9c0.3,0.8,0,1.7-0.8,2h-0.1c-0.8,0.3-1.7,0-2-0.8
	l-1.6-3.7c-0.4-0.8,0-1.7,0.8-2h0.1c0.7-0.3,1.7,0,2,0.8L-11.9,150.9z M-10.3,175.3c-0.1,0.3-0.2,0.6-0.2,0.8c0,0.3-0.1,0.6-0.1,0.8
	c0,0.9,0.5,1.5,1.3,1.9l3.1,1.3c0.2-0.1,2.5-1.1,4.6-4c0.6-0.9,1-1.9,1.3-2.9h-9.2L-10.3,175.3z M-1.4,159.9
	c-0.3-0.8,0.1-1.6,0.9-1.9l0,0c0.8-0.2,1.7,0.2,1.9,1l1.8,5.3c0.2,0.8-0.2,1.7-0.9,1.9H2.2c-0.8,0.3-1.7-0.1-1.9-0.9L-1.4,159.9z
	 M1.6,152.1c-0.3,0.7-1.2,1.2-2,0.8l0,0c-0.8-0.3-1.2-1.2-0.8-2l1.6-3.7c0.3-0.8,1.2-1.1,2-0.8l0,0c0.8,0.3,1.2,1.2,0.8,2L1.6,152.1
	z M10.2,149.9h13.9c0.9,0,1.5,0.7,1.5,1.5l0,0c0,0.8-0.6,1.5-1.5,1.5h-0.2v0.3c-0.8,4-2.5,11.8-6.1,18.5L24,184
	c0.4,0.7,0.1,1.6-0.6,2c-0.4,0.2-0.8,0.3-1.2,0.2c-0.4-0.1-0.7-0.4-0.9-0.7l-5-10.4c-1.1,2.2-6.5,9.2-7.7,10.6
	c-0.3,0.3-0.6,0.5-1.1,0.6c-0.5,0-0.9-0.1-1.2-0.5c-0.6-0.6-0.7-1.5-0.1-2.1c3.4-3.7,6.9-9,8.1-11.7c0,0,0-0.1,0.1-0.2l-7-11.6
	c-0.4-0.7-0.2-1.6,0.6-2h0.1c0.7-0.4,1.6-0.1,2,0.6l5.9,9.4c2.4-4.8,4.2-11.7,4.9-15.3H8.2c-0.5,0-0.8-0.2-1.2-0.5
	c-0.3-0.4-0.4-0.7-0.3-1.2l0.7-4.4c0.1-0.8,0.9-1.4,1.7-1.2h0.1c0.8,0.1,1.4,0.9,1.3,1.7L10.2,149.9z"/>
<path class="st0" d="M-54.5,177.4c2.3-2.5,4.2-5.3,5.6-8.4c1.4-3.1,2.4-6.6,3-10.5l0.1-0.6h-16.3c-0.8,0-1.5-0.6-1.5-1.5l0,0
	c0-0.8,0.7-1.5,1.5-1.5h16.8c0.3-2.4,0.6-5,0.8-7.8c0-0.8,0.7-1.5,1.5-1.4h0.1c0.9,0,1.5,0.7,1.4,1.7c-0.2,2.7-0.4,5.2-0.7,7.6h17.4
	c0.8,0,1.5,0.7,1.5,1.5l0,0c0,0.9-0.7,1.5-1.5,1.5H-41l17.4,26.2c0.5,0.7,0.2,1.7-0.5,2.2l0,0c-0.7,0.5-1.6,0.2-2.1-0.4L-43,160.5
	c-0.7,3.7-1.8,7-3.1,10c-1.5,3.4-3.5,6.4-6.1,8.9c-2.3,2.4-5.1,4.5-8.4,6.5c-0.8,0.5-2.2,0.6-2.6-0.2c-0.4-0.7,0.3-2,1-2.4
	C-59.1,181.5-56.6,179.5-54.5,177.4z"/>
<path class="st0" d="M36,186.9c-0.7,0-1.5-0.1-2.2-0.5c-1.4-0.6-2.4-1.6-3-3.1c-0.3-0.6-0.5-1.4-0.5-2.2v-29.3
	c0-0.8,0.1-1.6,0.5-2.2c0.9-2.2,2.9-3.5,5.3-3.5h32.5c0.8,0,1.5,0.7,1.5,1.5v0.1c0,0.8-0.7,1.5-1.5,1.5H36c-0.7,0-1.3,0.3-1.8,0.8
	s-0.7,1.1-0.7,1.8v29.4c0,0.7,0.2,1.3,0.7,1.9c0.5,0.5,1.2,0.8,1.8,0.8h32.5c0.8,0,1.5,0.6,1.5,1.5v0.1c0,0.9-0.7,1.5-1.5,1.5H36
	V186.9z M39.8,158.3c-1.2,0-1.9-1.2-1.4-2.2l2.1-4.4c0.4-0.7,1.3-1.1,2-0.7h0.1c0.8,0.4,1.1,1.2,0.7,2.1l-1,2h25.8
	c0.9,0,1.5,0.7,1.5,1.5v0.1c0,0.9-0.6,1.5-1.5,1.5H54.5c-0.1,2.9-0.5,5.5-1.2,7.7h15.3c0.8,0,1.5,0.7,1.5,1.5l0,0
	c0,0.8-0.7,1.5-1.5,1.5H59l10.4,10c0.3,0.3,0.5,0.6,0.5,1.1c0,0.4-0.1,0.7-0.4,1.1l-0.1,0.1c-0.6,0.6-1.6,0.6-2.2,0l-12.7-12.3h-2.3
	c-0.7,1.5-1.5,2.9-2.4,4.1c-1.5,1.9-3.4,3.5-5.4,4.8c-1.8,1.1-3.7,2.1-5.9,3.1c-0.7,0.3-1.7,0-2-0.8l0,0c-0.3-0.8,0-1.7,0.8-2
	c1.9-0.9,3.6-1.8,5.2-2.8c1.9-1.2,3.5-2.6,4.8-4.3c0.5-0.6,1-1.3,1.4-2.1H38.3c-0.9,0-1.5-0.7-1.5-1.5l0,0c0-0.8,0.6-1.5,1.5-1.5H50
	l0.3-0.8c0.6-1.9,1-4.2,1.2-6.9H39.8V158.3z"/>
<path class="st0" d="M80.4,152.6c0,0.8-0.6,1.5-1.5,1.5s-1.5-0.7-1.5-1.5v-4.8c0-0.9,0.6-1.5,1.5-1.5s1.5,0.6,1.5,1.5V152.6z
	 M83,187.2c-3.5,0.7-5.7-2.8-5.7-5.8v-22.8c0-0.8,0.6-1.5,1.5-1.5s1.5,0.7,1.5,1.5v22.9c0,1.4,1.2,2.7,2.7,2.7l33.8-0.1
	c0.9,0,1.4,0.7,1.4,1.5v0.1c0,0.8-0.5,1.5-1.4,1.5L83,187.3V187.2z M96.7,156.7H85.4c-0.8,0-1.5-0.7-1.5-1.5v-0.1
	c0-0.8,0.7-1.5,1.5-1.5h11.7c0.2-1.9,0.4-4,0.5-6.2c0-0.8,0.7-1.4,1.4-1.4h0.2c0.9,0,1.4,0.7,1.4,1.6c-0.2,2.1-0.3,4.1-0.6,5.9h16.1
	c0.8,0,1.5,0.7,1.5,1.5v0.1c0,0.8-0.7,1.5-1.5,1.5h-15l12.9,21.7c0.1,0.2,0.2,0.5,0.2,0.7c0,0.5-0.3,1-0.7,1.3h-0.1
	c-0.3,0.1-0.5,0.2-0.8,0.2c-0.5,0-1-0.3-1.3-0.7l-12.1-20.3c-1.6,8.8-4.9,15.1-12.8,20.6c-0.3,0.2-0.6,0.2-0.9,0.2
	c-0.6,0-1-0.3-1.2-0.7v-0.1c-0.2-0.2-0.2-0.5-0.2-0.8c0-0.5,0.2-0.9,0.7-1.2C92.1,172.6,95.3,166.1,96.7,156.7z"/>
<path class="st1" d="M116.8,186v11.7c0,0,0.1,3.8-2.8,4c-2.9,0.2-11.4,2.4-15.2,4.4c-4.1,2.1-8.6,2.6-18.9,12.7
	c-6.4,6.3-24.4,13.8-40.7-0.2c-4.8-4.1-8.1-6.8-11.7-2.9c-3.6,3.9-19.4,32.6-48.8,31.7c-22.3-0.6-35.5-15.3-39.7-25.9
	c-4.2-10.6-2.5-35.3-2.5-35.3"/>
<path class="st2" d="M-65.6,185.9c0,0,0.2-2.1,2.8-3.3c1.6-0.8-0.5,2.6-0.5,2.6l-0.9,1.3L-65.6,185.9z"/>
<rect x="-90" y="153.8" class="st2" width="45.7" height="5.1"/>
<rect x="-79.5" y="252.9" class="st2" width="207.1" height="5.2"/>
<rect x="-78" y="246.5" class="st2" width="205.6" height="3.2"/>
<rect x="-79.5" y="143" class="st2" width="5.2" height="114.7"/>
</svg>
